<mxfile host="app.diagrams.net" modified="2024-03-22T20:55:08.204Z" agent="Mozilla/5.0 (X11; Linux x86_64; rv:123.0) Gecko/20100101 Firefox/123.0" version="24.0.6" etag="S6VNV9eWi5beLG-RTg4x" type="github">
  <diagram name="Page-1" id="mvfnpwllDPE0gOT_B_QV">
    <mxGraphModel>
      <root>
        <mxCell id="0" />
        <mxCell id="1" parent="0" />
      </root>
    </mxGraphModel>
  </diagram>
</mxfile>
